<svg xmlns="http://www.w3.org/2000/svg" width="16" height="16"><path fill-rule="evenodd" d="M8 0a8 8 0 0 0-2.92 15.45c-.07-.63-.13-1.6.03-2.3.16-.62.95-3.97.95-3.97s-.24-.48-.24-1.2c0-1.1.66-1.93 1.46-1.93.68 0 1 .5 1 1.12 0 .7-.43 1.72-.65 2.67-.18.8.4 1.44 1.2 1.44 1.4 0 2.5-1.5 2.5-3.66 0-1.92-1.37-3.25-3.33-3.25-2.28 0-3.62 1.7-3.62 3.47 0 .68.27 1.42.6 1.82A.24.24 0 0 1 5 9.9l-.22.9c-.03.15-.1.18-.27.1-1-.46-1.6-1.92-1.6-3.1 0-2.52 1.82-4.83 5.28-4.83 2.77 0 4.93 1.97 4.93 4.62 0 2.74-1.73 4.96-4.14 4.96-.8 0-1.58-.42-1.84-.92l-.5 1.9c-.18.7-.66 1.57-1 2.1A8 8 0 1 0 8 0z" opacity=".198"/></svg>