<svg xmlns="http://www.w3.org/2000/svg" width="16" height="14" viewBox="0 0 16 14">
    <path fill="#000" fill-rule="evenodd" d="M16 1.705a6.554 6.554 0 0 1-1.885.516A3.288 3.288 0 0 0 15.558.405a6.576 6.576 0 0 1-2.085.797A3.285 3.285 0 0 0 7.88 4.195 9.319 9.319 0 0 1 1.114.766a3.287 3.287 0 0 0 1.015 4.383 3.269 3.269 0 0 1-1.486-.411c-.036 1.52 1.054 2.943 2.633 3.26a3.29 3.29 0 0 1-1.483.056 3.285 3.285 0 0 0 3.067 2.28A6.6 6.6 0 0 1 0 11.693a9.293 9.293 0 0 0 5.032 1.474c6.095 0 9.538-5.147 9.33-9.764A6.683 6.683 0 0 0 16 1.704z" opacity=".198"/>
</svg>
